<?xml version="1.0" encoding="UTF-8" standalone="no"?>
<svg width="398px" height="176px" viewBox="0 0 398 176" version="1.1" xmlns="http://www.w3.org/2000/svg" xmlns:xlink="http://www.w3.org/1999/xlink" xmlns:sketch="http://www.bohemiancoding.com/sketch/ns">
    <defs>
        <rect id="path-1" x="0" y="0" width="397.55493" height="175.138028"></rect>
        <rect id="path-3" x="0" y="0" width="397.55493" height="175.138028"></rect>
        <rect id="path-5" x="0" y="0" width="397.55493" height="175.138028"></rect>
        <rect id="path-7" x="0" y="0" width="397.55493" height="175.138028"></rect>
        <rect id="path-9" x="0" y="0" width="397.55493" height="175.138028"></rect>
    </defs>
    <g id="Page-1" stroke="none" stroke-width="1" fill="none" fill-rule="evenodd" sketch:type="MSPage">
        <g id="logo-crisp" sketch:type="MSLayerGroup">
            <g id="Group">
                <g id="Clipped">
                    <mask id="mask-2" sketch:name="SVGID_1_" fill="white">
                        <use xlink:href="#path-1"></use>
                    </mask>
                    <g id="SVGID_1_"></g>
                    <path d="M45.915493,105.983099 L45.915493,122.084507 C45.7577465,126.867606 44.8,131.166197 43.0478873,134.839437 C41.6112676,138.028169 39.3802817,141.059155 36.1915493,143.447887 C33.0028169,145.994366 28.6985915,147.430986 22.9577465,147.430986 C17.2225352,147.430986 12.7549296,145.994366 9.56619718,143.447887 C6.38309859,141.059155 4.30985915,138.028169 2.87323944,134.839437 C1.12112676,131.171831 0.163380282,126.867606 0,122.084507 L0,53.0535211 C0.163380282,48.4338028 1.12112676,44.1295775 2.87323944,40.4619718 C4.30985915,37.2732394 6.38309859,34.084507 9.56619718,31.6901408 C12.7549296,29.3014085 17.2225352,27.7070423 22.9577465,27.7070423 C28.6985915,27.7070423 33.0028169,29.3014085 36.1915493,31.6901408 C39.3802817,34.084507 41.6112676,37.2732394 43.0478873,40.4619718 C44.8,44.1295775 45.7577465,48.4338028 45.915493,53.0535211 L45.915493,69.1605634 L29.8140845,69.1605634 L29.8140845,53.0535211 C29.8140845,49.8647887 29.0197183,47.6338028 27.2619718,45.7239437 C26.4676056,44.9239437 25.0309859,44.4450704 23.2788732,44.4450704 C20.2478873,44.4450704 18.8169014,46.6760563 18.0169014,48.7492958 C17.5380282,50.028169 17.3746479,51.4591549 17.2225352,53.0535211 L17.2225352,122.084507 C17.3802817,125.43662 18.3323944,127.661972 19.9323944,129.419718 C20.7267606,130.219718 21.8422535,130.692958 23.2788732,130.692958 C26.9464789,130.692958 28.3774648,128.783099 29.1774648,126.388732 C29.656338,125.273239 29.8140845,123.83662 29.8140845,122.084507 L29.8140845,105.983099 L45.915493,105.983099 L45.915493,105.983099 Z" id="Shape" fill="#000000" sketch:type="MSShapeGroup" mask="url(#mask-2)"></path>
                </g>
                <g id="Clipped">
                    <mask id="mask-4" sketch:name="SVGID_1_" fill="white">
                        <use xlink:href="#path-3"></use>
                    </mask>
                    <g id="SVGID_1_"></g>
                    <path d="M124.940845,146.157746 L116.011268,96.743662 L111.385915,96.743662 L111.385915,146.157746 L94.1690141,146.157746 L94.1690141,28.9859155 L111.385915,28.9859155 C131.95493,28.9859155 140.721127,40.6253521 140.721127,62.7830986 C140.721127,74.4225352 137.695775,84.9464789 131.15493,89.4084507 L142.157746,146.16338 L124.940845,146.16338 L124.940845,146.157746 Z M111.385915,80.7943662 C113.774648,80.7943662 116.969014,80.4732394 119.521127,78.2422535 C122.067606,76.0112676 124.140845,71.7070423 124.140845,63.4140845 C124.140845,55.1267606 122.067606,50.6647887 119.521127,48.428169 C116.969014,46.1971831 113.774648,46.0394366 111.385915,46.0394366 L111.385915,80.7943662 L111.385915,80.7943662 Z" id="Shape" fill="#000000" sketch:type="MSShapeGroup" mask="url(#mask-4)"></path>
                </g>
                <g id="Clipped">
                    <mask id="mask-6" sketch:name="SVGID_1_" fill="white">
                        <use xlink:href="#path-5"></use>
                    </mask>
                    <g id="SVGID_1_"></g>
                    <rect id="Rectangle-path" fill="#000000" sketch:type="MSShapeGroup" mask="url(#mask-6)" x="189.611268" y="0" width="17.2169014" height="175.138028"></rect>
                </g>
                <g id="Clipped">
                    <mask id="mask-8" sketch:name="SVGID_1_" fill="white">
                        <use xlink:href="#path-7"></use>
                    </mask>
                    <g id="SVGID_1_"></g>
                    <path d="M286.016901,60.3943662 C286.016901,56.5690141 285.859155,52.2647887 284.732394,48.9183099 C283.622535,45.7239437 281.864789,43.4985915 279.15493,43.4985915 C274.692958,43.656338 273.256338,48.2760563 273.256338,55.1323944 C273.256338,59.1211268 275.014085,63.2619718 277.566197,67.7239437 C280.112676,72.1915493 283.464789,76.8169014 286.811268,81.7577465 C290.8,87.656338 294.783099,93.7126761 297.814085,99.6056338 C300.84507,105.509859 302.91831,111.560563 302.91831,117.943662 C302.91831,125.757746 301.633803,133.087324 297.977465,138.507042 C294.304225,143.926761 288.411268,147.430986 279.002817,147.430986 C268,147.430986 261.774648,143.295775 258.270423,136.912676 C254.771831,130.535211 253.966197,122.084507 253.966197,113.31831 L270.867606,111.723944 C270.867606,116.664789 271.025352,121.605634 272.304225,125.273239 C273.414085,129.098592 275.329577,131.650704 278.997183,131.650704 C284.090141,131.650704 286.011268,126.230986 286.011268,118.738028 C286.011268,114.912676 284.090141,110.44507 281.549296,105.825352 C280.107042,103.594366 278.670423,101.2 277.08169,98.8112676 C273.729577,94.028169 270.067606,88.6084507 266.23662,82.7042254 C262.411268,76.8112676 259.543662,70.7492958 257.785915,64.5352113 C256.828169,61.5042254 256.349296,58.315493 256.349296,55.1267606 C256.349296,48.7492958 257.785915,41.8929577 261.453521,36.6366197 C265.121127,31.5323944 270.698592,27.8647887 278.833803,27.7070423 C289.194366,27.5492958 295.250704,31.8535211 298.602817,38.0676056 C301.95493,44.4450704 302.912676,52.2591549 302.912676,58.7943662 L286.016901,60.3943662 L286.016901,60.3943662 Z" id="Shape" fill="#000000" sketch:type="MSShapeGroup" mask="url(#mask-8)"></path>
                </g>
                <g id="Clipped">
                    <mask id="mask-10" sketch:name="SVGID_1_" fill="white">
                        <use xlink:href="#path-9"></use>
                    </mask>
                    <g id="SVGID_1_"></g>
                    <path d="M350.050704,28.9802817 L367.267606,28.9802817 C374.760563,28.9802817 382.253521,30.8957746 387.994366,36.315493 C393.735211,41.7352113 397.560563,50.6647887 397.560563,64.056338 C397.560563,77.4478873 393.729577,86.2140845 387.994366,91.6338028 C382.253521,97.0591549 374.760563,99.284507 367.267606,99.284507 L367.267606,146.152113 L350.050704,146.152113 L350.050704,28.9802817 L350.050704,28.9802817 Z M367.261972,81.7521127 C372.523944,81.7521127 375.870423,80.7943662 377.785915,78.084507 C379.695775,75.5323944 380.174648,71.228169 380.174648,64.6929577 C380.174648,58.1577465 379.695775,53.5323944 377.785915,50.6647887 C375.870423,47.7971831 372.51831,46.5183099 367.261972,46.5183099 L367.261972,81.7521127 L367.261972,81.7521127 Z" id="Shape" fill="#000000" sketch:type="MSShapeGroup" mask="url(#mask-10)"></path>
                </g>
            </g>
        </g>
    </g>
</svg>