<svg class="logo" width="388px" height="121px" viewBox="0 0 388 121" xmlns="http://www.w3.org/2000/svg" xmlns:xlink="http://www.w3.org/1999/xlink">
  <title>Refresh the Triangle</title>
  <desc>A meetup for web professionals</desc>
  <defs>
    <linearGradient id="skyGradient" x1="0%" y1="50%">
      <stop offset="0%" stop-color="lightblue" stop-opacity=".5">
        <animate attributeName="stop-color" values="lightblue;blue;red;red;black;red;red;purple;lightblue" dur="14s" repeatCount="indefinite" />
      </stop>
      <stop offset="100%" stop-color="lightblue" stop-opacity=".5">
        <animate attributeName="stop-color" values="lightblue;orange;purple;purple;black;purple;purple;blue;lightblue" dur="14s" repeatCount="indefinite" />
        <animate attributeName="offset" values=".95;.80;.60;.40;.20;0;.20;.40;.60;.80;.95" dur="14s" repeatCount="indefinite" />
      </stop>
    </linearGradient>
  </defs>
  <g fill="url(#skyGradient)" fill-rule="evenodd">
    <path d="M256.3454,63.869153 C256.138229,64.1717894 255.899918,64.4877718 255.630467,64.817101 C255.227481,65.3208336 254.597825,66.0512349 253.74148,67.0083268 C252.885134,67.9654187 252.406595,68.49433 252.305849,68.5950765 C251.902863,68.9980626 251.651,69.3002976 251.550254,69.5017907 C251.348761,69.9047767 250.442056,71.1640893 248.830111,73.2797661 C248.729365,73.4812592 248.527875,73.8086804 248.225635,74.2620398 C247.923396,74.7153991 247.721906,75.0428204 247.621159,75.2443134 C247.01668,76.151032 246.261093,77.0577371 245.354374,77.9644557 C245.152881,78.1659488 244.901018,78.5185563 244.598779,79.0222889 C244.296539,79.5260215 244.095049,79.8282565 243.994303,79.929003 C242.986838,81.4402007 242.331995,82.3469058 242.029756,82.6491453 C241.727516,82.9513849 241.526026,83.2032474 241.425279,83.4047404 C240.417814,85.4196708 238.503659,87.4345709 235.682757,89.4495012 C234.675292,90.1547268 234.121194,90.5577069 234.020447,90.6584534 C233.113729,91.0614394 231.854416,91.8673995 230.242472,93.0763577 L230.091353,93.2274767 L229.940234,93.2274767 C229.335755,93.2274767 228.554981,93.454153 227.597889,93.9075123 C226.640797,94.3608716 226.061513,94.6379204 225.86002,94.7386669 C224.449569,95.141653 223.291002,95.343143 222.384283,95.343143 L219.664141,95.343143 L217.095117,95.343143 C216.994371,95.343143 216.843253,95.3179567 216.64176,95.2675835 C216.440267,95.2172102 216.213591,95.1416515 215.961725,95.0409049 C215.709858,94.9401584 215.533555,94.8897859 215.432808,94.8897859 C211.705187,93.7815742 208.783582,91.8170466 206.667905,88.9961442 C205.861933,87.787186 205.156718,86.6286184 204.552239,85.5204067 L203.32361,82.8174234 L203.32361,82.8174234 C202.885286,83.5873549 202.337746,84.4883416 201.680977,85.5204067 C200.975752,86.6286184 200.522399,87.3842059 200.320906,87.787192 C199.615681,88.9961502 198.557858,90.3562078 197.147407,91.8674055 C196.744421,92.2703916 196.442186,92.4718816 196.240693,92.4718816 C195.938453,92.4718816 195.686591,92.5474404 195.485098,92.6985601 C195.283604,92.8496799 195.082114,93.1015424 194.880621,93.4541552 C194.679128,93.806768 194.528011,94.0334443 194.427264,94.1341908 C191.807855,94.940163 190.397425,95.343143 190.195932,95.343143 C189.994439,95.343143 188.886244,95.2927705 186.871313,95.192024 C185.360116,95.9979961 182.740746,96.1994861 179.013124,95.7965 C178.610138,95.7965 177.804178,95.494265 176.59522,94.8897859 C174.479543,93.9830673 172.917996,92.9252447 171.91053,91.7162865 C169.8956,89.6006097 168.68666,88.0894346 168.283674,87.1827159 C166.268744,83.4550948 165.261294,79.9793921 165.261294,76.7555036 C165.261294,76.453264 165.210921,75.9999115 165.110175,75.3954324 C165.009428,74.7909533 164.959056,74.3376008 164.959056,74.0353612 C164.858309,73.4308821 164.807937,72.5745496 164.807937,71.4663379 C164.70719,70.4588727 164.656818,69.7536577 164.656818,69.3506716 C164.455325,65.8245435 164.858305,61.9458608 165.86577,57.7145071 C166.067263,57.110028 166.319125,56.2536955 166.621365,55.1454838 C166.923604,54.0372721 167.125094,53.2816846 167.225841,52.8786985 C167.225841,52.8786985 167.276213,52.425346 167.37696,51.5186273 C166.873227,51.2163878 166.016895,50.8637803 164.807937,50.4607942 C163.598978,50.0578081 162.692273,49.6548281 162.087794,49.251842 C161.684808,48.9496025 160.072888,47.9421524 157.251986,46.2294617 C153.725858,47.5391664 151.35835,48.4458714 150.149392,48.949604 C149.04118,48.6473645 148.335965,48.2947569 148.033725,47.8917709 C147.832232,47.6902778 147.655929,47.5139741 147.504809,47.3628543 C147.353689,47.2117345 147.177385,47.0354308 146.975892,46.8339377 C146.774399,46.6324447 146.623282,46.4813272 146.522535,46.3805807 C146.623282,45.8768481 146.925517,45.6753581 147.429249,45.7761046 C149.14194,45.8768511 151.660565,44.9701461 154.9852,43.0559622 C154.481468,42.0484971 154.179233,41.4943996 154.078486,41.393653 C153.474007,39.9832018 152.970282,37.8675567 152.567296,35.0466542 C152.365803,33.837696 152.51692,32.4776384 153.020653,30.9664407 C153.625132,29.3544964 154.58221,27.7425763 155.891914,26.1306321 C156.395647,25.4254065 157.25198,24.8209364 158.460938,24.3172038 C160.778108,23.4104852 162.994498,23.4104852 165.110175,24.3172038 C166.218386,27.1381063 167.125091,29.4048689 167.830317,31.1175597 L167.830317,31.8731548 C168.132557,34.5933108 167.376969,37.0111909 165.563532,39.1268677 C164.959053,39.7313468 164.606445,40.3358169 164.505699,40.940296 C166.016896,43.1567193 168.132541,44.3656594 170.852697,44.5671524 C171.658669,44.1641664 172.06165,43.9123039 172.06165,43.8115573 C173.572847,42.4011061 175.184767,41.8470086 176.897458,42.1492481 C177.70343,41.9477551 178.257528,41.8470101 178.559767,41.8470101 C178.862007,41.8470101 179.365732,41.9729413 180.070958,42.2248076 C180.776183,42.4766739 181.279908,42.6529777 181.582148,42.7537242 C181.884387,42.8544707 182.186622,43.0559607 182.488862,43.3582003 C183.395581,44.5671585 184.604521,45.5746085 186.115718,46.3805807 C186.518704,47.4887924 186.770567,48.3451249 186.871313,48.949604 C186.569074,49.3525901 186.266839,49.6548251 185.964599,49.8563181 C186.166092,52.5764741 186.266837,54.0876492 186.266837,54.3898887 C186.367584,55.8003399 186.266839,56.8581625 185.964599,57.5633881 C185.863853,57.8656277 185.81348,58.3189802 185.81348,58.9234593 C185.81348,69.6025901 185.863853,76.2517604 185.964599,78.8711699 C185.964599,79.677142 186.014972,80.8357096 186.115718,82.3469073 C186.216465,83.8581051 186.266837,84.8151826 186.266837,85.2181687 C186.367584,86.4271269 186.921681,87.5353219 187.929147,88.5427871 C188.634372,88.8450267 189.339587,88.7946541 190.044813,88.3916681 C193.470194,86.1752447 195.938447,84.3114621 197.449645,82.8002644 C198.882772,81.2775667 200.236247,79.7548893 201.510102,78.2321961 C200.933417,76.471541 200.537021,75.1229768 200.320906,74.1864803 C200.320906,73.8842407 200.270534,73.4057019 200.169787,72.7508496 C200.069041,72.0959972 199.968296,71.6174584 199.867549,71.3152189 L199.71643,69.3506716 C199.514937,67.9402204 199.414192,67.1342604 199.414192,66.9327673 L199.414192,65.1193391 C199.212699,63.6081413 199.212699,62.0969663 199.414192,60.5857685 C199.615685,58.3693451 199.817175,57.0092876 200.018668,56.505555 C200.018668,56.4048085 200.043854,56.2788772 200.094228,56.1277574 C200.144601,55.9766377 200.22016,55.8507064 200.320906,55.7499599 C200.824639,55.2462273 200.975756,54.5410123 200.774263,53.6342936 C200.673517,53.0298145 200.875007,51.9216194 201.378739,50.3096752 C201.580232,49.7051961 201.907654,48.8236773 202.361013,47.6650923 C202.814372,46.5065074 203.141794,45.6249886 203.343287,45.0205095 C203.54478,44.4160304 203.74627,43.9626779 203.947763,43.6604383 C206.063439,40.7387893 208.229457,38.1697917 210.44588,35.9533683 L211.050357,35.3488923 C211.453343,35.2481457 212.460793,34.4925582 214.072737,33.082107 C214.374976,32.7798674 214.626839,32.6287499 214.828332,32.6287499 C215.332065,32.6287499 216.087652,32.2257699 217.095117,31.4197978 L217.850712,30.6642027 C218.455192,30.9664422 218.807799,31.1679322 218.908546,31.2686787 C219.412278,31.5709183 219.916003,31.7220358 220.419736,31.7220358 C222.33392,32.0242753 224.046585,33.0820979 225.557782,34.8955352 L225.708901,35.0466542 C227.018606,36.759345 227.320841,39.0261076 226.615616,41.8470101 C226.313376,42.8544753 225.255553,44.9701204 223.442116,48.1940089 C223.34137,48.2947554 223.240625,48.4458729 223.139878,48.647366 C223.039132,48.848859 222.938387,48.9999765 222.83764,49.100723 C220.318977,52.022372 217.598862,54.7928597 214.677213,57.4122691 L214.677213,60.1324114 C214.677213,61.5428627 214.576468,62.4495677 214.374975,62.8525538 C214.274228,62.9533003 214.324601,63.2051628 214.526094,63.6081489 C214.727587,64.1118815 214.626842,64.766724 214.223856,65.5726961 C214.324602,65.6734427 214.47572,65.8497464 214.677213,66.1016127 C214.878706,66.353479 215.029824,66.5297828 215.13057,66.6305293 C215.13057,67.2350084 215.180943,68.1668997 215.281689,69.4262311 C215.382436,70.6855626 215.483181,71.6174539 215.583927,72.221933 C215.583927,72.5241726 215.684672,73.0782701 215.886165,73.8842422 C215.886165,74.1864818 215.98691,74.7909518 216.188403,75.6976704 C216.389896,76.6043891 216.490641,77.3096041 216.490641,77.8133367 C216.490641,78.2163228 216.591386,78.8207928 216.792879,79.626765 L218.606308,84.6136926 C218.707054,84.7144391 218.757427,84.8403704 218.757427,84.9914901 C218.757427,85.1426099 218.807799,85.2685412 218.908546,85.3692877 C219.613771,87.4849645 221.175319,88.8450221 223.593235,89.4495012 C223.693982,89.4495012 223.945844,89.5502462 224.34883,89.7517393 C225.255549,90.0539788 226.262999,89.9532338 227.371211,89.4495012 C227.774197,89.2480082 229.184627,88.3413031 231.602543,86.7293589 C231.904783,86.5278658 232.307763,86.2508171 232.811495,85.8982043 C233.315228,85.5455915 233.718208,85.2685427 234.020447,85.0670497 C235.833885,83.7573449 237.596922,82.2965424 239.309613,80.6845981 C239.511106,80.4831051 240.115576,79.77789 241.123041,78.5689318 C241.526027,77.9644527 243.037203,76.1006701 245.656612,72.9775281 C247.268556,70.9625978 249.887926,68.1417376 253.514801,64.514863 L255.17711,62.8525538 L253.968158,61.6436016 C253.262932,60.938376 252.80958,60.535396 252.608087,60.4346495 C250.693903,58.9234517 248.930865,57.1100416 247.318921,54.9943648 C246.412203,53.9868996 245.706988,52.7779596 245.203255,51.3675083 C244.498029,49.352578 244.145422,47.4887954 244.145422,45.7761046 L244.145422,43.7359978 L244.145422,41.6958911 C244.145422,41.494398 244.246167,40.789183 244.44766,39.5802248 C244.44766,39.5802248 244.472846,39.4542935 244.523219,39.2024273 C244.573593,38.950561 244.598779,38.7742572 244.598779,38.6735107 C244.397286,36.9608199 244.951383,34.9459198 246.261088,32.6287499 C247.570793,30.4123265 249.384203,28.6996614 251.701373,27.4907032 C253.615557,26.5839846 255.378594,26.4832396 256.990538,27.1884652 C258.803976,27.7929443 259.861798,28.3470418 260.164038,28.8507744 C260.466277,29.153014 260.818885,29.354504 261.221871,29.4552505 C261.524111,29.4552505 262.733051,30.0597205 264.848727,31.2686787 C265.05022,31.3694252 265.705063,31.8731503 266.813275,32.7798689 C267.115514,33.0821085 267.317004,33.535461 267.417751,34.1399401 C267.71999,35.7518844 268.274088,37.1119419 269.08006,38.2201536 C269.684539,39.2276188 269.785284,40.2854414 269.382298,41.393653 C268.777819,43.3078369 268.274094,44.7182669 267.871108,45.6249856 C267.770361,46.0279716 267.493313,46.6576279 267.039953,47.5139733 C266.586594,48.3703187 266.309545,48.999975 266.208799,49.4029611 C265.60432,51.1156518 265.100594,52.2742194 264.697608,52.8786985 C264.798355,53.1809381 265.10059,53.4831731 265.604323,53.7854126 C267.317013,55.0951173 269.080051,56.5559199 270.893488,58.1678642 C271.598714,58.0671177 272.001694,57.7145102 272.10244,57.1100311 C272.10244,57.0092845 272.404675,56.5055595 273.009155,55.5988409 C273.109901,55.4980943 273.38695,55.1958593 273.840309,54.6921267 C274.293668,54.1883942 274.520345,53.7350416 274.520345,53.3320556 C274.621091,53.1305625 274.923326,52.8283275 275.427059,52.4253415 C276.031538,52.0223554 276.837498,51.2667678 277.844963,50.1585562 C278.852428,49.0503445 279.658388,48.2947569 280.262867,47.8917709 C280.565107,47.6902778 281.068832,47.1865528 281.774058,46.3805807 C282.983016,45.1716225 285.048288,43.4589574 287.969937,41.242534 C287.969937,41.242534 288.272172,41.0914165 288.876652,40.789177 C289.279638,40.8899235 289.632245,40.9906685 289.934485,41.091415 C288.725526,42.1996267 287.566959,43.6100568 286.458747,45.3227475 C286.257254,45.6249871 285.87946,46.1035259 285.325355,46.7583782 C284.771249,47.4132306 284.393455,47.8413969 284.191962,48.0428899 C283.889722,48.3451294 283.209694,49.0503445 282.151855,50.1585562 C281.094017,51.2667678 280.363615,52.1734729 279.960629,52.8786985 C279.759136,53.0801915 279.356156,53.4831716 278.751677,54.0876507 C278.046452,54.7928763 277.593099,55.4477188 277.391606,56.0521979 C277.29086,56.455184 276.68639,57.059654 275.578178,57.8656262 C275.578178,58.2686122 275.527805,58.7723372 275.427059,59.3768163 C274.923326,60.082042 274.520346,60.6361395 274.218107,61.0391256 C274.4196,61.5428581 275.074442,62.3991907 276.182654,63.6081489 C276.182654,63.7088954 276.258213,63.8096404 276.409332,63.9103869 C276.560452,64.0111334 276.686383,64.1118785 276.78713,64.212625 C278.399074,66.2275553 279.305779,67.3861229 279.507272,67.6883624 C281.119217,70.0055323 281.774059,72.5241574 281.47182,75.2443134 C281.47182,75.6472995 281.371075,76.2265832 281.169582,76.9821821 C280.968089,77.737781 280.867344,78.1659473 280.867344,78.2666938 C280.867344,78.3674403 280.741412,78.8459791 280.489546,79.7023245 C280.23768,80.5586699 280.111748,81.1883261 280.111748,81.5913122 C280.111748,81.8935518 279.960631,82.4476493 279.658391,83.2536214 C279.557645,83.4551145 279.154665,84.412192 278.449439,86.1248828 C278.247946,86.5278689 278.096829,86.7797314 277.996082,86.8804779 C277.593096,87.3842105 276.887881,88.5931505 275.880416,90.5073344 C275.376683,91.414053 274.822586,92.0688955 274.218107,92.4718816 C274.016614,92.5726281 273.739565,92.6733731 273.386952,92.7741196 C273.034339,92.8748662 272.732104,92.9756112 272.480238,93.0763577 C272.228372,93.1771042 271.951323,93.2778492 271.649083,93.3785957 C271.145351,93.4793422 270.440136,93.6808323 269.533417,93.9830718 C269.432671,93.9830718 269.256367,94.0082581 269.0045,94.0586313 C268.752634,94.1090046 268.57633,94.1845633 268.475584,94.2853098 C267.266626,94.7890424 265.201353,94.9401599 262.279704,94.7386669 C262.178958,94.7386669 261.322625,94.5875494 259.710681,94.2853098 C257.69575,92.2703795 256.637928,89.4998919 256.537181,85.9737638 C256.436435,85.8730173 256.360876,85.646341 256.310503,85.2937282 C256.26013,84.9411154 256.234943,84.7144391 256.234943,84.6136926 C256.03345,83.1024948 256.083823,81.8431823 256.386062,80.8357171 C256.789048,79.9289985 256.990538,79.2741559 256.990538,78.8711699 C257.091285,78.0651977 257.443892,77.3096102 258.048372,76.6043846 C258.149118,76.503638 258.753588,75.7480505 259.8618,74.3375993 C260.667772,73.4308806 261.624849,72.0204505 262.733061,70.1062667 C262.128582,69.3002946 261.448553,68.5195208 260.692954,67.7639219 C259.937356,67.0083231 259.005464,66.1519905 257.897253,65.1948986 C257.288882,64.6694878 256.771599,64.2275737 256.3454,63.869153 L256.3454,63.869153 Z M111.009609,76.2792081 C110.563871,76.8409564 110.060128,77.4027035 109.498375,77.9644557 C109.296882,78.1659488 109.04502,78.5185563 108.74278,79.0222889 C108.440541,79.5260215 108.239051,79.8282565 108.138304,79.929003 C107.130839,81.4402007 106.475997,82.3469058 106.173757,82.6491453 C105.871517,82.9513849 105.670027,83.2032474 105.569281,83.4047404 C104.561816,85.4196708 102.647661,87.4345709 99.8267582,89.4495012 C98.8192931,90.1547268 98.2651955,90.5577069 98.164449,90.6584534 C97.2577304,91.0614394 95.9984178,91.8673995 94.3864735,93.0763577 L94.2353545,93.2274767 L94.0842355,93.2274767 C93.4797564,93.2274767 92.6989826,93.454153 91.7418907,93.9075123 C90.7847988,94.3608716 90.205515,94.6379204 90.004022,94.7386669 C88.5935707,95.141653 87.4350032,95.343143 86.5282845,95.343143 L83.8081422,95.343143 L81.2391188,95.343143 C81.1383723,95.343143 80.9872548,95.3179567 80.7857618,95.2675835 C80.5842687,95.2172102 80.3575925,95.1416515 80.1057262,95.0409049 C79.8538599,94.9401584 79.6775561,94.8897859 79.5768096,94.8897859 C75.8491885,93.7815742 72.9275833,91.8170466 70.8119065,88.9961442 C70.0059344,87.787186 69.3007193,86.6286184 68.6962402,85.5204067 L66.4294549,80.5334791 C65.4219898,77.6118301 64.7671472,75.496185 64.4649077,74.1864803 C64.4649077,73.8842407 64.4145352,73.4057019 64.3137887,72.7508496 C64.2130421,72.0959972 64.1122971,71.6174584 64.0115506,71.3152189 L63.8604316,69.3506716 C63.6589386,67.9402204 63.5581936,67.1342604 63.5581936,66.9327673 L63.5581936,65.1193391 C63.3567005,63.6081413 63.3567005,62.0969663 63.5581936,60.5857685 C63.7596866,58.3693451 63.9611766,57.0092876 64.1626696,56.505555 C64.1626696,56.4048085 64.1878559,56.2788772 64.2382291,56.1277574 C64.2886024,55.9766377 64.3641612,55.8507064 64.4649077,55.7499599 C64.9686403,55.2462273 65.1197578,54.5410123 64.9182647,53.6342936 C64.8175182,53.0298145 65.0190082,51.9216194 65.5227408,50.3096752 C65.7242338,49.7051961 66.0516551,48.8236773 66.5050144,47.6650923 C66.9583738,46.5065074 67.285795,45.6249886 67.4872881,45.0205095 C67.6887811,44.4160304 67.8902711,43.9626779 68.0917641,43.6604383 C70.207441,40.7387893 72.3734586,38.1697917 74.589882,35.9533683 L75.1943581,35.3488923 C75.5973441,35.2481457 76.6047942,34.4925582 78.2167384,33.082107 C78.518978,32.7798674 78.7708405,32.6287499 78.9723335,32.6287499 C79.4760661,32.6287499 80.2316537,32.2257699 81.2391188,31.4197978 L81.9947139,30.6642027 C82.599193,30.9664422 82.9518005,31.1679322 83.0525471,31.2686787 C83.5562796,31.5709183 84.0600047,31.7220358 84.5637373,31.7220358 C86.4779211,32.0242753 88.1905862,33.0820979 89.7017839,34.8955352 L89.8529029,35.0466542 C91.1626077,36.759345 91.4648427,39.0261076 90.7596171,41.8470101 C90.4573775,42.8544753 89.3995549,44.9701204 87.5861176,48.1940089 C87.4853711,48.2947554 87.3846261,48.4458729 87.2838796,48.647366 C87.1831331,48.848859 87.0823881,48.9999765 86.9816416,49.100723 C84.4629787,52.022372 81.7428635,54.7928597 78.8212145,57.4122691 L78.8212145,60.1324114 C78.8212145,61.5428627 78.7204695,62.4495677 78.5189765,62.8525538 C78.41823,62.9533003 78.4686025,63.2051628 78.6700955,63.6081489 C78.8715885,64.1118815 78.7708435,64.766724 78.3678575,65.5726961 C78.468604,65.6734427 78.6197215,65.8497464 78.8212145,66.1016127 C79.0227076,66.353479 79.1738251,66.5297828 79.2745716,66.6305293 C79.2745716,67.2350084 79.3249441,68.1668997 79.4256906,69.4262311 C79.5264371,70.6855626 79.6271821,71.6174539 79.7279286,72.221933 C79.7279286,72.5241726 79.8286736,73.0782701 80.0301667,73.8842422 C80.0301667,74.1864818 80.1309117,74.7909518 80.3324047,75.6976704 C80.5338977,76.6043891 80.6346428,77.3096041 80.6346428,77.8133367 C80.6346428,78.2163228 80.7353878,78.8207928 80.9368808,79.626765 L82.750309,84.6136926 C82.8510555,84.7144391 82.901428,84.8403704 82.901428,84.9914901 C82.901428,85.1426099 82.9518005,85.2685412 83.0525471,85.3692877 C83.7577727,87.4849645 85.3193203,88.8450221 87.7372367,89.4495012 C87.8379832,89.4495012 88.0898457,89.5502462 88.4928318,89.7517393 C89.3995504,90.0539788 90.4070005,89.9532338 91.5152122,89.4495012 C91.9181982,89.2480082 93.3286283,88.3413031 95.7465447,86.7293589 C96.0487842,86.5278658 96.4517643,86.2508171 96.9554969,85.8982043 C97.4592294,85.5455915 97.8622095,85.2685427 98.164449,85.0670497 C99.9778863,83.7573449 101.740924,82.2965424 103.453615,80.6845981 C103.655108,80.4831051 104.259578,79.77789 105.267043,78.5689318 C105.670029,77.9644527 107.181204,76.1006701 109.800614,72.9775281 C110.195172,72.4843298 110.650089,71.9428456 111.165365,71.3530742 C111.16383,71.3405181 111.16227,71.3278997 111.160685,71.3152189 C111.160685,71.3152189 111.009567,71.0129839 110.707328,70.4085048 C109.095383,71.818956 108.289423,72.5745435 108.289423,72.6752901 C107.584198,73.3805157 106.42563,74.2872207 104.813686,75.3954324 C104.007714,75.899165 103.000264,76.503635 101.791305,77.2088606 C101.186826,77.5111002 100.531984,77.8637077 99.8267582,78.2666938 L98.7689251,78.2666938 C100.481616,77.2592286 102.647633,75.5465635 105.267043,73.1286471 C107.584213,70.9122238 109.34725,69.3003037 110.556209,68.2928385 C111.362181,67.5876129 111.765161,66.8320253 111.765161,66.0260532 C111.765161,65.2200811 111.916278,64.414121 112.218518,63.6081489 C112.420011,62.8021768 112.646687,61.6939817 112.898553,60.2835305 C113.15042,58.8730792 113.377096,57.8152567 113.578589,57.1100311 C113.679336,56.908538 113.679336,56.6818618 113.578589,56.4299955 C113.477842,56.1781292 113.42747,56.0018254 113.42747,55.9010789 C113.528216,55.4980928 113.729706,54.6921328 114.031946,53.4831746 C114.031946,53.2816816 114.082319,52.9794465 114.183065,52.5764605 C114.283812,52.3749674 114.258625,52.0223599 114.107506,51.5186273 C113.956386,51.0148948 114.031945,50.7126597 114.334184,50.6119132 C114.334184,50.4104202 114.35937,50.1333714 114.409744,49.7807586 C114.460117,49.4281458 114.460117,49.1259108 114.409744,48.8740445 C114.35937,48.6221782 114.485302,48.2443844 114.787541,47.7406519 C115.190527,47.0354262 115.291272,46.4309562 115.089779,45.9272236 C114.888286,45.6249841 114.837914,45.020514 114.93866,44.1137954 C115.341646,42.4011046 115.543136,41.3936545 115.543136,41.091415 C115.543136,40.889922 115.618695,40.5625007 115.769815,40.1091414 C115.920935,39.655782 115.996493,39.2779883 115.996493,38.9757487 C115.996493,38.6735092 116.072052,38.2957154 116.223172,37.8423561 C116.374292,37.3889968 116.44985,37.0615755 116.44985,36.8600825 C116.44985,36.5578429 116.600968,36.1548629 116.903207,35.6511303 C117.507687,34.8451582 117.759549,34.0391981 117.658803,33.233226 C117.558056,32.7294934 117.759546,32.0746509 118.263279,31.2686787 C118.565518,30.8656927 118.666263,30.5634576 118.565517,30.3619646 C118.46477,29.656739 118.716633,28.8004065 119.321112,27.7929413 C120.127084,26.4832366 120.479691,25.223924 120.378945,24.0149658 C120.378945,23.6119797 120.630807,22.7556472 121.13454,21.4459425 C122.142005,18.9272796 123.804298,15.0989693 126.121468,9.96089699 C127.028186,8.04671317 128.640106,5.42734303 130.957276,2.10270798 C131.058023,2.10270798 131.511375,1.64935546 132.317347,0.742636805 C133.425559,1.04487636 134.886362,0.94413135 136.699799,0.440398766 C137.203532,0.742638316 137.959119,1.14561834 138.966584,1.64935092 C139.268824,1.85084396 139.470314,1.95158896 139.57106,1.95158896 C140.175539,1.95158896 140.931127,2.40494149 141.837846,3.31166014 C141.636353,5.72957654 141.535608,7.03926161 141.535608,7.24075464 C141.535608,9.55792452 141.636353,10.9683546 141.837846,11.4720872 C141.938592,11.7743267 141.913406,12.3536105 141.762286,13.2099559 C141.611166,14.0663013 141.434863,14.6203988 141.23337,14.8722651 C141.031877,15.1241314 140.729641,15.9049052 140.326655,17.2146099 C140.024416,18.2220751 139.772553,19.0784076 139.57106,19.7836333 C139.168074,21.1940845 138.966584,22.0000445 138.966584,22.2015376 C138.966584,22.4030306 138.865839,22.9067556 138.664346,23.7127278 C137.959121,25.8284046 137.656886,27.4403247 137.757632,28.5485364 C137.757632,28.7500294 137.50577,30.210832 137.002037,32.9309879 C136.498304,35.3489043 135.692344,37.716412 134.584133,40.0335819 C134.281893,40.5373144 133.954472,41.2677157 133.601859,42.2248076 C133.249246,43.1818996 133.072942,43.7611833 133.072942,43.9626764 C132.468463,45.4738741 131.863993,46.6324417 131.259514,47.4384138 C130.755782,48.0428929 130.503919,48.6473629 130.503919,49.251842 C130.403173,49.5540816 130.277241,50.1585516 130.126122,51.0652703 C129.975002,51.9719889 129.899443,52.677204 129.899443,53.1809366 C129.899443,53.7854157 129.697953,55.1958457 129.294967,57.4122691 C129.093474,58.3189877 128.992729,58.8730853 128.992729,59.0745783 C128.992729,59.5783109 128.91717,60.3338984 128.76605,61.3413636 C128.614931,62.3488288 128.488999,63.1044163 128.388253,63.6081489 L128.992729,68.2928385 L131.712871,70.5596238 C131.813618,70.6603703 132.166225,70.8114878 132.770704,71.0129808 C133.375184,71.2144739 133.727791,71.4159639 133.828538,71.6174569 C133.828538,71.6174569 134.231518,71.9196919 135.03749,72.524171 C136.044955,72.322678 137.75762,71.6678355 140.175536,70.5596238 C142.492706,69.4514121 146.472134,67.436512 152.113939,64.514863 C152.718418,64.31337 153.625123,63.7592724 154.834081,62.8525538 C155.640053,62.2480747 156.748248,61.7947222 158.1587,61.4924826 C158.763179,61.2909896 159.166159,61.3917346 159.367652,61.7947207 C159.166159,62.2984532 158.763179,62.7518058 158.1587,63.1547918 C155.035558,65.3712152 153.222148,66.5801553 152.718415,66.7816483 C152.617669,66.8823948 152.113943,67.2350023 151.207225,67.8394814 C151.106478,67.8394814 150.955361,67.9150402 150.753868,68.06616 C150.552375,68.2172797 150.401257,68.343211 150.300511,68.4439575 C149.696032,68.6454505 148.890072,69.0484306 147.882606,69.6529097 C146.875141,70.2573888 146.220299,70.6099963 145.918059,70.7107428 C143.097157,72.2219406 141.031884,73.1286456 139.722179,73.4308852 C139.218447,73.5316317 138.513232,73.8086804 137.606513,74.2620398 C136.699794,74.7153991 136.095324,74.9924479 135.793085,75.0931944 C135.692338,75.3954339 135.440476,75.8739727 135.03749,76.5288251 C134.634504,77.1836774 134.433014,77.6118437 134.433014,77.8133367 C134.634507,78.0148298 134.710065,78.6192998 134.659692,79.626765 C134.609319,80.6342301 134.584133,81.2387002 134.584133,81.4401932 C134.684879,82.5484049 134.735252,83.3543649 134.735252,83.8580975 C134.936745,84.5633231 134.987117,85.7218907 134.886371,87.3338349 C134.584131,92.3711608 134.483386,95.2423934 134.584133,95.9476191 C134.584133,96.4513516 134.53376,96.8543317 134.433014,97.1565712 C134.231521,97.6603038 134.130776,98.2144013 134.130776,98.8188804 L134.130776,100.858987 L134.130776,102.521296 C134.130776,102.873909 134.181148,103.100585 134.281895,103.201332 C134.584134,103.705065 134.634507,104.762887 134.433014,106.374831 C134.231521,107.785283 133.979658,109.54832 133.677419,111.663997 C133.677419,111.86549 133.576674,112.26847 133.375181,112.872949 C133.375181,112.872949 132.821083,114.384124 131.712871,117.40652 C131.712871,117.40652 131.612126,117.532451 131.410633,117.784317 C131.20914,118.036184 131.00765,118.26286 130.806157,118.464353 C130.604664,118.665846 130.503919,118.942895 130.503919,119.295508 C130.503919,119.64812 130.252057,119.874797 129.748324,119.975543 C129.446085,120.07629 129.017918,120.202221 128.463812,120.353341 C127.909707,120.50446 127.48154,120.630392 127.179301,120.731138 C125.063624,121.234871 122.645744,120.731146 119.925588,119.219948 C119.220362,118.716215 118.515147,118.061373 117.809922,117.255401 C116.197977,115.643457 115.03941,114.132281 114.334184,112.72183 C113.528212,111.109886 112.974114,109.497966 112.671875,107.886022 C112.168142,105.568852 112.017025,104.007304 112.218518,103.201332 C112.218518,102.899092 112.117773,102.546485 111.91628,102.143499 C111.513294,100.833794 111.563666,99.6752266 112.067399,98.6677614 C112.067399,98.3655219 111.916281,97.6099343 111.614042,96.4009761 C111.311802,95.1920179 111.26143,94.2853129 111.462923,93.6808338 C111.362176,92.4718756 111.33699,90.5829067 111.387363,88.0138705 C111.437736,85.4448344 111.362178,83.5558655 111.160685,82.3469073 C111.061652,80.7623923 111.011295,78.7398455 111.009609,76.2792081 L111.009609,76.2792081 Z M13.0529705,87.7657044 C13.0111408,87.7369642 12.9690722,87.7080642 12.9267646,87.6790046 C12.6463565,87.4826608 12.3701558,87.3101571 12.0981541,87.1614884 C9.29959977,85.786965 7.90034358,85.0997135 7.90034358,85.0997135 C6.91609368,84.5359012 5.77196431,84.3198098 4.46792114,84.4514328 C3.40225396,84.5410238 2.55390123,84.8872382 1.92283751,85.4900865 C2.01254482,85.7200561 2.02443435,85.9268758 1.95850644,86.1105518 C1.89257852,86.2942279 1.80842826,86.4442469 1.70605311,86.5606133 C1.60367797,86.6769798 1.47185322,86.8354051 1.31057491,87.0358939 C1.14929661,87.2363828 1.02518733,87.3688693 0.938243359,87.4333573 C1.21577173,88.1709412 1.36294013,88.5874021 1.37975297,88.6827525 C1.37975297,88.6827525 1.49888098,89.0795793 1.73714058,89.8732448 C3.13641775,90.5605065 3.89212662,90.9434004 4.00428986,91.021938 C4.27629154,91.1706067 4.61908094,91.4419716 5.03266835,91.836041 C5.44625575,92.2301104 5.70912713,92.4664104 5.82129037,92.5449479 C5.82969679,92.5926231 7.18542345,93.7299606 9.88851101,95.9569946 C10.698873,96.649783 11.2007785,97.126586 11.3942426,97.3874179 C11.5148123,97.5136306 11.9957021,97.8712475 12.8369264,98.4602791 C12.8453328,98.5079543 12.9133322,98.5451209 13.0409266,98.57178 C13.168521,98.5984391 13.2365204,98.6356058 13.2449268,98.683281 C13.5757735,99.165676 14.1954545,99.683158 15.1039884,100.235742 C16.0125223,100.788327 16.51866,101.080046 16.6224168,101.110908 C17.3682908,101.716752 18.3469411,102.109493 19.5583972,102.28914 C20.7221781,102.477194 21.5367893,102.775966 22.0022551,103.185467 C22.9333031,103.168771 23.741006,102.73141 24.425388,101.873373 C25.3537891,100.726522 26.0172032,99.3314685 26.4156504,97.6881723 C26.5840117,96.970281 26.8365498,95.8934602 27.1732723,94.4576776 C27.5099948,93.021895 27.7625329,91.9450742 27.9308941,91.2271829 C28.506109,88.9136705 28.9480216,87.2381554 29.2566451,86.2005872 C29.4193633,85.7294783 29.657823,85.060683 29.9720313,84.1941812 C30.2862397,83.3276795 30.4784066,82.8145171 30.5485377,82.6546786 C30.89643,81.5610288 31.4223473,80.7801011 32.1263055,80.3118719 C32.4740814,80.0539197 32.6816501,79.6978009 32.7490179,79.2435049 C32.841605,78.9322345 32.7932687,78.6581062 32.6040078,78.4211119 C32.4147469,78.1841176 32.1728913,78.0670038 31.8784337,78.0697672 C31.4409505,78.0977498 31.1352695,78.176228 30.9613815,78.305204 C29.5591082,78.99488 28.6167882,79.5051336 28.1343932,79.8359802 C27.6127293,80.2229085 27.207438,80.7122046 26.9185071,81.3038831 C26.7784543,81.669424 26.5945829,82.0545044 26.3668899,82.4591298 C26.3721834,82.4220427 26.3775251,82.3846352 26.3829148,82.3469073 C26.5844078,80.8357096 26.5844078,79.5260245 26.3829148,78.4178128 C26.2821683,77.9140802 26.2821683,77.5614727 26.3829148,77.3599797 C26.5844078,76.7555006 26.5340353,76.0502855 26.2317958,75.2443134 C25.8288097,73.9346087 25.6776922,72.5745511 25.7784387,71.1640999 C25.8791852,70.6603673 25.954744,69.8040347 26.0051172,68.5950765 C26.0554905,67.3861183 26.1310492,66.4794133 26.2317958,65.8749342 C26.3325423,65.1697086 26.3829148,64.1874448 26.3829148,62.9281133 L26.3829148,60.4346495 C26.4836613,59.1249448 26.4332888,58.1174947 26.2317958,57.4122691 C26.0303027,56.80779 26.0303027,56.304065 26.2317958,55.9010789 C26.6347818,54.6921207 26.6851543,53.7350431 26.3829148,53.0298175 C26.3829148,52.929071 26.408101,52.828326 26.4584743,52.7275795 C26.5088475,52.626833 26.5340338,52.5764605 26.5340338,52.5764605 C28.2467246,54.9943769 30.0601347,56.908532 31.9743185,58.3189832 C33.1832767,59.1249553 34.2410993,59.5279354 35.1478179,59.5279354 C36.8605087,59.5279354 38.3213113,59.3768179 39.5302695,59.0745783 C41.5451998,60.6865226 42.5526499,62.7014227 42.5526499,65.1193391 C42.5526499,67.436509 42.3007873,69.7032716 41.7970548,71.919695 C41.2933222,74.4383579 41.0918322,77.259218 41.1925787,80.3823601 C41.1925787,80.4831066 41.2429512,81.2890666 41.3436977,82.8002644 C41.4444442,83.50549 41.4948167,83.90847 41.4948167,84.0092165 C41.4948167,85.0166817 41.6459342,86.0745042 41.9481738,87.1827159 C42.6533994,89.9028719 43.811967,92.0688895 45.4239112,93.6808338 C46.8343625,94.9905385 47.9425575,95.947616 48.7485297,96.5520951 C50.0582344,97.4588138 51.720527,98.2144013 53.7354573,98.8188804 L55.624445,98.8188804 C55.9770578,98.8188804 56.6067141,98.6677629 57.5134328,98.3655234 C58.4201514,98.0632838 59.0246215,97.8617938 59.326861,97.7610473 C60.7373122,96.8543286 61.8958798,95.7461336 62.8025985,94.4364289 C62.903345,94.2349358 63.2559525,93.6808383 63.8604316,92.7741196 C64.2634177,92.3711336 64.4649077,92.1192711 64.4649077,92.0185245 C64.5656542,91.716285 65.0190067,90.9606975 65.8249788,89.7517393 C66.0264719,89.4494997 66.3287069,89.0717059 66.731693,88.6183466 C67.134679,88.1649873 67.436914,87.837566 67.6384071,87.636073 C67.9406466,87.2330869 68.2428816,86.7293619 68.5451212,86.1248828 C68.7466142,85.7218967 68.6962417,85.3692892 68.3940022,85.0670497 C68.1925091,85.0670497 67.6887841,85.2685397 66.882812,85.6715257 C66.882812,85.7722722 66.7065082,85.9233898 66.3538954,86.1248828 C66.0012826,86.3263758 65.7242338,86.4774933 65.5227408,86.5782398 C65.1197547,86.6789864 64.5152847,86.8552901 63.7093126,87.1071564 C62.9033404,87.3590227 62.3996154,87.5353265 62.1981224,87.636073 C60.5861781,88.2405521 58.974258,88.4420421 57.3623138,88.2405491 C57.3623138,88.2405491 57.0097062,88.1398041 56.3044806,87.938311 C56.0022411,86.9308459 55.8007511,86.3767483 55.7000045,86.2760018 C55.4985115,85.6715227 55.3222078,84.7648177 55.171088,83.5558595 C55.0199682,82.3469013 54.9444094,81.6920587 54.9444094,81.5913122 C54.7429164,80.2816075 54.5917989,79.2237849 54.4910524,78.4178128 C54.0880663,75.1939243 53.8362038,73.1286517 53.7354573,72.221933 C53.5339643,69.4010305 52.7783767,66.4794254 51.468672,63.4570299 C50.8641929,61.8450856 49.8567428,60.283538 48.4462916,58.7723403 C47.8418125,57.9663681 46.9351075,57.2107806 45.7261493,56.505555 C47.6403331,55.3973433 48.6981556,54.0372857 48.8996487,52.4253415 L48.8996487,52.2742224 C49.0003952,52.0727294 49.0507677,51.9719844 49.0507677,51.9719844 C49.8567398,51.4682518 50.7130724,50.0578217 51.619791,47.7406519 C51.619791,47.6399053 51.6449773,47.4636016 51.6953505,47.2117353 C51.7457238,46.959869 51.8212825,46.7835652 51.9220291,46.6828187 C52.3250151,46.0783396 52.5265051,45.3227521 52.5265051,44.4160334 C52.5265051,44.2145404 52.5516914,43.9123054 52.6020646,43.5093193 C52.6524379,43.1063332 52.6776242,42.8040982 52.6776242,42.6026052 C52.5768776,42.3003656 52.7783677,41.6455231 53.2821002,40.6380579 C53.6850863,39.7313393 53.8865763,38.7238892 53.8865763,37.6156775 C53.9873228,37.111945 54.0880678,36.4319162 54.1888144,35.5755708 C54.2895609,34.7192254 54.3399334,34.0895691 54.3399334,33.686583 C54.6421729,31.5709062 54.7429179,30.1101036 54.6421714,29.3041315 C54.6421714,28.1959198 54.5414264,26.2313922 54.3399334,23.4104897 C54.2391869,22.8060106 54.0880693,22.3022856 53.8865763,21.8992995 C53.6850833,21.2948204 53.4080345,20.4636741 53.0554217,19.4058357 C52.7028089,18.3479973 52.3502014,17.416106 51.9975886,16.6101338 C51.6449758,15.8041617 51.267182,15.0485742 50.8641959,14.3433486 C49.8567308,12.7314043 48.8492807,11.4217192 47.8418155,10.414254 C46.4313643,9.10454933 44.1142292,7.74449176 40.8903406,6.33404052 C39.0769033,5.62881491 37.7924045,5.25102114 37.0368056,5.20064788 C36.2812068,5.15027462 34.9967079,5.37695088 33.1832706,5.88068347 C30.4631147,6.6866556 28.2970971,8.04671317 26.6851528,9.96089699 C26.5844063,10.0616435 26.1814263,10.4898098 25.4762007,11.2454087 C24.770975,12.0010075 24.26725,12.6306638 23.9650105,13.1343964 C23.4612779,13.7388755 22.9071803,14.595208 22.3027012,15.7034197 C22.3027012,15.6026732 22.2271425,15.375997 22.0760227,15.0233841 C21.9249029,14.6707713 21.7989717,14.3937226 21.6982252,14.1922295 C21.2952391,12.5802853 20.4892791,11.1194827 19.2803209,9.80977797 C18.7765883,9.30604539 18.0210007,8.65120285 17.0135356,7.84523072 C16.0060704,7.03925859 15.5023454,6.63627856 15.5023454,6.63627856 C14.5956267,5.93105295 13.4874317,5.42732792 12.1777269,5.12508837 C11.3717548,5.42732792 10.8176573,5.62881793 10.5154177,5.72956445 C10.2131782,5.83031096 9.55833565,6.03180097 8.55087048,6.33404052 C8.14788441,8.34897086 7.8960219,9.91051844 7.79527538,11.0187301 C7.69452887,11.4217162 7.64415636,11.6735787 7.64415636,11.7743252 L7.79527538,15.5523007 C7.79527538,15.7537937 7.71971663,17.3657138 7.56859685,20.3881093 C7.41747708,23.4105048 7.49303583,25.0224249 7.79527538,25.223918 C7.79527538,25.9291436 7.89602039,28.0951612 8.09751342,31.7220358 C8.09751342,32.729501 8.07232717,34.3917935 8.02195391,36.7089634 C7.97158065,39.0261333 7.99676691,40.7387984 8.09751342,41.8470101 C8.09751342,41.8470101 7.99676842,44.1137727 7.79527538,48.647366 C7.69452887,50.9645359 7.69452887,52.3245934 7.79527538,52.7275795 C7.79527538,52.828326 7.89602039,54.3395011 8.09751342,57.2611501 C8.09751342,57.5633896 8.12269967,58.0167422 8.17307293,58.6212213 C8.22344619,59.2257004 8.24863244,59.6790529 8.24863244,59.9812924 C8.45012547,63.205181 8.60124298,65.1697086 8.7019895,65.8749342 C8.7019895,67.0838924 8.85310701,68.343205 9.15534656,69.6529097 C9.65907914,71.5670935 9.91094166,72.8767786 9.91094166,73.5820042 C9.70944862,76.7051462 10.2635462,79.2237713 11.5732509,81.1379551 C11.6739974,81.4401947 11.8251149,82.0446647 12.0266079,82.9513834 C12.1273544,83.455116 12.278472,84.160331 12.479965,85.0670497 C12.681458,85.9737683 12.782203,86.4271208 12.782203,86.4271208 C12.9836961,87.233093 13.0844411,87.636073 13.0844411,87.636073 C13.0725466,87.6777037 13.0620564,87.7209142 13.0529705,87.7657044 L13.0529705,87.7657044 Z M380.561359,55.5808784 C380.026035,55.5196137 379.338896,55.5070202 378.499931,55.5430974 C377.459782,55.587826 376.769836,55.5893315 376.430072,55.5476138 C376.065278,55.7097542 375.311853,55.8069296 374.169774,55.8391429 C373.88962,55.8737214 373.517079,55.8883332 373.052141,55.8829789 C372.587202,55.8776245 372.163698,55.8859788 371.781615,55.908042 C371.399531,55.9301052 371.034441,55.9542539 370.686334,55.9804889 C369.544256,56.0127022 368.429612,55.9620613 367.342368,55.8285646 C367.13851,55.803534 366.806203,55.7713538 366.345436,55.732023 C365.88467,55.6926923 365.476959,55.6426318 365.122294,55.58184 C364.767628,55.5210482 364.42459,55.4358184 364.09317,55.326148 C363.965608,55.2415082 363.669954,54.981034 363.206198,54.5447176 C362.860456,53.7090284 362.493259,52.7672526 362.104595,51.7193618 C362.698278,51.3783939 363.41534,51.1560455 364.255803,51.0523099 C368.619055,50.3464609 371.702491,49.8111256 373.506205,49.446288 C375.734323,48.9956062 377.400321,48.7690643 378.504252,48.7666556 C379.336371,48.7308727 379.926476,48.6998642 380.274583,48.6736292 C380.698986,48.5877851 381.159746,48.6271152 381.656876,48.7916209 C382.805739,49.1311079 383.808253,49.5001888 384.664445,49.8988737 C385.157778,49.7385365 385.547369,49.7856772 385.833223,50.040297 C385.838927,50.0371901 385.844609,50.0340115 385.850268,50.0307613 C385.964712,49.9413475 386.153665,49.947304 386.417133,50.0486309 C386.84631,50.204793 387.137793,50.499243 387.29159,50.9319899 C387.59084,51.8654363 387.734506,52.5211055 387.722593,52.8990171 C387.698767,53.6548404 387.736334,54.3319703 387.835295,54.9304272 C388.041562,56.0593882 387.937872,57.1847627 387.524221,58.3065845 C387.182092,59.1267909 387.053952,59.7490864 387.139796,60.1734897 C385.900003,62.1250658 385.237797,63.1646192 385.153158,63.2921811 C384.937386,63.6450621 384.616121,64.295377 384.189353,65.2431453 C383.677944,66.3184754 383.390655,66.972962 383.327476,67.2066247 C383.33225,67.4486309 383.254472,67.8012056 383.094138,68.2643592 C382.933804,68.7275128 382.841123,69.0610137 382.816092,69.2648718 C382.769601,69.3626291 382.706423,69.5962883 382.626557,69.9658564 C382.546691,70.3354245 382.494244,70.6221333 382.469213,70.8259914 C382.473987,71.0679976 382.346449,71.9662716 382.086595,73.5208403 C381.725414,75.3388762 381.544826,76.2478805 381.544826,76.2478805 C381.321915,77.2206794 381.005424,78.1129969 380.595343,78.9248598 C380.108965,79.7963318 379.600532,80.2857131 379.070028,80.3930183 C379.040223,80.3548701 378.99671,80.3581495 378.939488,80.4028563 L378.853655,80.4699163 C378.790476,80.703579 378.72074,80.8502127 378.644444,80.9098219 C378.568147,80.9694311 378.431352,81.0302328 378.234052,81.0922289 C378.036753,81.1542251 377.919031,81.2001247 377.880883,81.2299293 C377.363496,81.511288 376.945056,81.4081779 376.625549,80.9205958 C376.514674,80.7000506 376.418703,80.4985825 376.337633,80.3161855 C375.906047,79.056093 375.879791,77.7250787 376.258863,76.3231025 C376.794098,74.4919491 377.151704,72.9838947 377.331692,71.7988942 C377.90744,69.076012 378.429549,67.0708351 378.898036,65.7833033 C379.531028,63.9986416 379.870764,63.0574462 379.917256,62.9596889 C380.271986,62.0825095 380.572128,61.352172 380.817686,60.7686681 C380.062906,61.7640523 379.488581,62.4586785 379.094706,62.8525538 C378.893213,63.0540468 378.792468,63.2555368 378.792468,63.4570299 C378.691722,64.1622555 378.339114,65.119333 377.734635,66.3282912 C377.130156,67.5372494 376.777548,68.2424645 376.676802,68.4439575 C376.374562,69.2499296 375.845651,70.4336835 375.090052,71.9952545 C374.334453,73.5568255 373.855914,74.5894618 373.654421,75.0931944 C373.553675,75.2946874 373.201067,75.9999024 372.596588,77.2088606 C372.495842,77.2088606 372.395097,77.2844194 372.29435,77.4355392 C372.193604,77.5866589 372.143231,77.7125902 372.143231,77.8133367 C371.941738,78.8208019 371.312082,80.1808595 370.254244,81.8935502 C369.196405,83.606241 368.566749,84.5633186 368.365256,84.7648116 C367.760777,85.8730233 366.602209,87.7368059 364.889518,90.3562153 C364.083546,91.464427 363.025724,92.8244846 361.716019,94.4364289 C360.406314,96.0483731 359.348492,97.6099207 358.54252,99.1211185 C357.333561,101.337542 355.570524,102.999834 353.253354,104.108046 C351.540663,104.813272 349.576135,105.417742 347.359712,105.921474 C343.430598,106.6267 339.24968,105.61925 334.816833,102.899094 C334.716087,102.798347 334.439038,102.24425 333.985679,101.236785 C333.53232,100.22932 333.104153,99.5241045 332.701167,99.1211185 C332.499674,98.9196254 332.398929,98.5166454 332.398929,97.9121663 C332.398929,97.0054477 332.147067,96.1994876 331.643334,95.494262 C331.038855,94.8897829 330.484757,93.5800978 329.981025,91.5651675 C329.578039,90.1547163 329.275804,89.2480112 329.074311,88.8450251 C328.671325,87.9383065 328.520207,86.8804839 328.620954,85.6715257 C328.923193,83.6565954 328.872821,80.9364802 328.469835,77.5110987 C328.167595,74.3879567 328.217968,71.5670965 328.620954,69.0484336 C328.620954,68.544701 328.671326,68.040976 328.772073,67.5372434 L328.772073,65.0437796 L328.772073,62.3991967 C328.772073,61.089492 328.419465,60.182787 327.71424,59.6790544 C328.520212,55.8506868 328.923192,51.669769 328.923192,47.1361758 C328.822445,45.5242315 328.872818,44.3656639 329.074311,43.6604383 C329.37655,42.7537197 329.401737,41.9729459 329.14987,41.3180935 C328.898004,40.6632412 328.772073,39.6809774 328.772073,38.3712726 C328.772073,37.464554 328.469838,36.6082214 327.865359,35.8022493 C324.540724,36.3059819 321.619118,37.3638045 319.100455,38.9757487 C318.596723,39.1772418 318.244115,39.4291043 318.042622,39.7313438 C317.740383,40.1343299 317.186285,40.8143587 316.380313,41.7714506 C315.574341,42.7285425 314.894312,43.584875 314.340206,44.3404739 C313.7861,45.0960728 313.357934,45.8768466 313.055695,46.6828187 C312.954948,46.9850583 312.728272,47.3880383 312.375659,47.8917709 C312.023046,48.3955035 311.79637,48.748111 311.695623,48.949604 C310.688158,51.3675204 310.134061,52.626833 310.033314,52.7275795 C309.831821,53.029819 309.731076,53.7350341 309.731076,54.8432458 L309.731076,57.6389476 L309.731076,60.2835305 C309.731076,60.58577 309.680704,61.0139363 309.579957,61.5680421 C309.479211,62.122148 309.428838,62.4495692 309.428838,62.5503158 L309.428838,63.6081489 C309.731078,64.6156141 309.731078,65.6230641 309.428838,66.6305293 C309.328092,66.7312758 309.302905,67.0586971 309.353279,67.6128029 C309.403652,68.1669087 309.428838,68.49433 309.428838,68.5950765 C309.428838,68.7965696 309.403652,69.1239908 309.353279,69.5773502 C309.302905,70.0307095 309.277719,70.2573857 309.277719,70.2573857 C309.176973,70.4588788 309.1266,70.9877901 309.1266,71.8441355 C309.1266,72.7004808 309.025855,73.3805096 308.824362,73.8842422 L308.824362,74.6398373 C309.227348,77.0577537 309.227348,79.3245163 308.824362,81.4401932 C308.723616,81.8431793 308.673243,82.1957868 308.673243,82.4980263 C308.77399,83.2032519 308.748803,84.2358882 308.597684,85.5959662 C308.446564,86.9560442 308.371005,87.7871905 308.371005,88.08943 C308.270259,89.2983882 307.917651,90.4569558 307.313172,91.5651675 C306.20496,91.7666605 305.650863,91.8674055 305.650863,91.8674055 C304.139665,91.8674055 302.930725,92.119268 302.024006,92.6230006 C300.915795,93.1267332 299.706854,93.1267332 298.39715,92.6230006 C298.195657,92.5222541 297.641559,92.3711366 296.734841,92.1696436 C296.432601,91.867404 296.432601,91.1118165 296.734841,89.9028583 C295.525882,87.7871814 294.770295,86.0241438 294.468055,84.6136926 C294.367309,84.0092135 294.316936,83.555861 294.316936,83.2536214 C294.316936,82.3469028 294.065074,80.6846102 293.561341,78.2666938 C293.460595,77.9644542 293.410222,77.6118467 293.410222,77.2088606 C293.309476,75.0931838 293.057613,73.5820087 292.654627,72.6752901 C292.755374,72.6752901 293.259099,72.4234275 294.165817,71.919695 C294.266564,71.6174554 294.216191,71.1892891 294.014698,70.6351833 C293.813205,70.0810775 293.71246,69.7536562 293.71246,69.6529097 C293.611714,69.5521632 293.410224,69.4262319 293.107984,69.2751121 C292.805745,69.1239923 292.604255,69.0484336 292.503508,69.0484336 C292.402761,68.544701 292.352389,68.2928385 292.352389,68.2928385 C292.251642,67.3861198 292.150897,66.3786698 292.050151,65.2704581 C291.949404,64.1622464 291.873846,62.9533064 291.823472,61.6436016 C291.773099,60.3338969 291.69754,59.3264469 291.596794,58.6212213 L291.596794,57.5633881 C291.69754,56.1529369 291.647168,54.9943693 291.445675,54.0876507 C291.445675,54.0876507 291.395302,53.3824356 291.294556,51.9719844 C291.093063,49.0503354 290.941945,47.4384153 290.841199,47.1361758 L290.841199,45.3227475 C290.740452,42.098859 290.69008,40.4869389 290.69008,40.4869389 C290.69008,40.0839529 290.639707,39.4542966 290.538961,38.5979512 C290.438214,37.7416058 290.387842,37.263067 290.387842,37.1623205 C290.287095,36.1548553 290.287095,35.6007578 290.387842,35.5000113 C290.690081,33.888067 290.488591,31.0672069 289.783366,27.0373462 L289.783366,26.4328701 L289.783366,25.828394 C289.581873,23.5112241 289.430755,22.2519116 289.330009,22.0504185 C289.229262,21.6474325 289.229262,21.294825 289.330009,20.9925854 C289.531502,20.3881063 289.581874,19.3806563 289.481128,17.970205 C289.380381,16.5597538 289.380381,15.5523037 289.481128,14.9478246 C289.682621,13.4366269 289.732993,12.3788043 289.632247,11.7743252 C289.5315,10.9683531 289.581873,9.55792301 289.783366,7.54299268 C289.783366,6.93851358 289.984856,4.62137845 290.387842,0.591517786 C290.992321,0.289278236 291.798281,0.18853323 292.805746,0.289279747 C294.619183,0.49077278 296.180731,1.04487031 297.490436,1.95158896 C299.001633,2.85830761 300.663926,3.86575767 302.477363,4.97396935 C303.081842,5.2762089 303.736685,5.98142394 304.441911,7.08963562 C304.844897,7.59336821 305.273063,8.374142 305.726422,9.43198042 C306.179782,10.4898188 306.557575,11.2705926 306.859815,11.7743252 C306.960561,11.8750717 307.061306,12.1269343 307.162053,12.5299203 C307.464292,15.6530623 307.665782,17.2649824 307.766529,17.3657289 C307.867275,18.0709546 307.96802,19.1539634 308.068767,20.6147879 C308.169514,22.0756124 308.219886,23.0075037 308.219886,23.4104897 C308.421379,25.4254201 308.572497,27.9944177 308.673243,31.1175597 C308.77399,31.4197993 308.899921,31.9738968 309.051041,32.7798689 C309.20216,33.5858411 309.277719,34.1903111 309.277719,34.5932972 C309.277719,34.8955367 309.328092,35.2985167 309.428838,35.8022493 C309.529585,36.3059819 309.579957,36.6585894 309.579957,36.8600825 C309.579957,36.8600825 309.63033,37.6660425 309.731076,39.2779868 C309.831823,39.2779868 309.932568,39.2276143 310.033314,39.1268677 C310.234807,39.0261212 310.385925,38.9757487 310.486671,38.9757487 C311.594883,37.867537 313.710528,36.255617 316.83367,34.1399401 C317.035163,34.0391936 317.287026,33.9384486 317.589265,33.8377021 C317.891505,33.7369555 318.092995,33.6362105 318.193741,33.535464 C321.014644,32.2257593 323.936249,31.3190543 326.958644,30.8153217 C329.779547,30.4123356 332.096682,30.5634531 333.910119,31.2686787 C334.816838,31.6716648 335.622798,31.9235273 336.328024,32.0242738 C337.033249,32.2257669 338.393307,33.0317269 340.408237,34.4421781 C340.710477,34.6436712 340.911967,34.8451612 341.012713,35.0466542 C341.11346,35.4496403 341.818675,36.6082078 343.12838,38.5223917 C344.337338,40.1343359 345.092925,42.1996085 345.395165,44.7182715 C345.495911,45.9272297 345.647029,48.0428748 345.848522,51.0652703 C345.949268,52.6772145 345.949268,54.0876446 345.848522,55.2966028 C345.747775,56.505561 345.949265,58.5204611 346.452998,61.3413636 C346.553744,61.9458427 346.604117,62.5503127 346.604117,63.1547918 C346.201131,66.2779339 346.201131,68.5446965 346.604117,69.9551477 C346.704863,70.1566407 346.755236,70.2573857 346.755236,70.2573857 C346.654489,76.4029233 346.503372,79.8282535 346.301879,80.5334791 L346.301879,82.1957883 L346.301879,84.5381331 C346.301879,85.9989576 346.251506,87.1323389 346.15076,87.938311 L346.15076,88.9961442 C345.647027,91.0110745 345.546282,93.5800721 345.848522,96.7032142 C346.654494,97.8114258 347.964179,98.5670134 349.777616,98.9699994 C350.785082,98.7685064 351.742159,98.1640364 352.648878,97.1565712 C353.757089,95.74612 354.663794,94.5875524 355.36902,93.6808338 C356.174992,92.4718756 356.93058,91.313308 357.635805,90.2050963 C359.046257,87.7871799 361.413764,83.8581247 364.738399,78.4178128 C364.839146,78.4178128 365.846596,76.6547752 367.76078,73.1286471 C369.372724,70.2069981 370.329802,68.5447055 370.632041,68.1417195 C372.042492,65.9252961 373.654412,63.7592785 375.46785,61.6436016 C375.870836,61.0391225 376.576051,60.18279 377.583516,59.0745783 C378.590981,57.9663666 379.346569,57.1100341 379.850301,56.505555 C379.973793,56.3203173 380.210811,56.0120932 380.561359,55.5808784 L380.561359,55.5808784 Z M30.6142473,51.6697464 C31.520966,52.6772115 32.729906,53.3320541 34.2411038,53.6342936 C34.7448364,53.8357866 35.1478164,53.8861591 35.4500559,53.7854126 C37.9687189,52.9794405 39.681384,52.223853 40.5881026,51.5186273 C40.9910887,50.1081761 41.1422062,48.899236 41.0414597,47.8917709 C40.8399666,46.6828127 40.7644079,45.0457063 40.8147811,42.9804027 C40.8651544,40.9150991 40.8399681,39.2779928 40.7392216,38.0690346 L40.7392216,35.0466542 L40.7392216,33.082107 C40.6384751,31.8731488 40.5881026,30.9664437 40.5881026,30.3619646 L40.5881026,28.2462983 L40.5881026,25.677275 C40.5881026,24.6698098 40.4873576,23.8134773 40.2858646,23.1082517 C40.185118,22.9067586 40.1347455,22.6045236 40.1347455,22.2015376 C40.3362386,20.3881003 39.782141,17.7183576 38.4724363,14.1922295 C38.0694503,13.0840179 37.2634902,12.4291753 36.054532,12.2276823 C35.7522925,12.1269358 35.3996849,12.0261908 34.9966989,11.9254442 C34.5937128,11.8246977 34.3418503,11.7743252 34.2411038,11.7743252 C33.4351317,11.5728322 32.9817791,11.5224597 32.8810326,11.6232062 C30.7653558,12.2276853 29.4052982,12.8321553 28.8008191,13.4366344 C28.8008191,13.537381 28.6748878,13.6884985 28.4230215,13.8899915 C28.1711552,14.0914845 28.045224,14.242602 28.045224,14.3433486 C26.3325332,15.9552928 24.8213581,17.6679579 23.5116534,19.4813952 C23.6123999,19.4813952 23.6627724,19.556954 23.6627724,19.7080737 C23.6627724,19.8591935 23.7131449,19.9851248 23.8138914,20.0858713 C24.317624,21.6978156 24.7709766,24.3171857 25.1739626,27.9440603 C25.4762022,30.8657093 25.5769472,32.7798644 25.4762007,33.686583 C25.4762007,33.7873296 25.5265732,33.9636333 25.6273197,34.2154996 C25.7280662,34.4673659 25.7784387,34.6436697 25.7784387,34.7444162 C25.8791852,34.9459092 26.1814202,37.3637893 26.6851528,41.9981291 C26.7858993,42.9048478 26.7355268,44.0634153 26.5340338,45.4738666 C26.9370199,46.0783457 27.5414899,47.0857957 28.347462,48.4962469 C28.8511946,49.4029656 29.6067822,50.4607882 30.6142473,51.6697464 Z M85.9238084,35.5000113 C85.1178363,35.6007578 84.4629938,36.0541103 83.9592612,36.8600825 C83.6570216,37.363815 83.2792279,38.1194026 82.8258685,39.1268677 C82.3725092,40.1343329 82.0450879,40.7891754 81.8435949,41.091415 C81.5413554,41.5951476 81.0376303,42.9048327 80.3324047,45.0205095 C80.3324047,45.121256 80.3072185,45.322746 80.2568452,45.6249856 C80.2064719,45.9272251 80.1309132,46.1287151 80.0301667,46.2294617 C79.9294202,46.3302082 79.7783027,46.4561394 79.5768096,46.6072592 C79.3753166,46.758379 79.2745716,46.8843102 79.2745716,46.9850568 L79.2745716,47.2872948 L79.4256906,47.5895328 L79.5768096,47.8917709 L79.5768096,48.1940089 C79.2745701,48.798488 79.0730801,49.302213 78.9723335,49.7051991 C78.871587,50.1081852 78.8212145,50.6622827 78.8212145,51.3675083 C78.8212145,51.5690014 78.7204695,51.9719814 78.5189765,52.5764605 C78.3174834,53.4831791 78.367856,54.1380217 78.6700955,54.5410077 C79.2745746,54.3395147 79.6775546,54.1380247 79.8790477,53.9365316 C81.893978,51.7201083 83.2540356,49.9570707 83.9592612,48.647366 L84.8659753,46.8339377 C85.3697079,46.1287121 85.8230604,45.3479383 86.2260465,44.4915929 C86.6290325,43.6352475 87.0320126,42.6277975 87.4349986,41.4692125 C87.8379847,40.3106276 88.1905922,39.4291088 88.4928318,38.8246297 C88.3920852,38.7238832 88.1150365,38.1949719 87.6616772,37.23788 C87.2083178,36.2807881 86.6290341,35.7015043 85.9238084,35.5000113 Z M134.130776,29.1530125 C133.526297,33.5858592 133.123317,36.2556018 132.921823,37.1623205 C132.921823,37.1623205 132.972196,37.313438 133.072942,37.6156775 C133.677422,37.0111984 133.979657,36.6585909 133.979657,36.5578444 C135.289361,32.3264907 136.044949,29.354513 136.246442,27.6418223 C136.246442,27.0373432 136.296814,26.5336181 136.397561,26.1306321 C137.505773,21.3955458 138.412478,18.0709606 139.117703,16.1567768 C139.520689,14.8470721 139.873297,12.2277019 140.175536,8.29858778 C140.175536,8.09709474 140.125164,7.84523223 140.024417,7.54299268 C140.024417,7.44224616 139.923672,7.29112865 139.722179,7.08963562 C138.815461,8.39934034 138.210991,9.91051542 137.908751,11.6232062 C137.707258,12.3284318 137.455396,12.8825294 137.153156,13.2855154 C136.850916,13.789248 136.674613,14.4440905 136.624239,15.2500627 C136.573866,16.0560348 136.447935,16.9123674 136.246442,17.819086 C136.044949,18.7258047 135.818273,19.7080685 135.566406,20.7659069 C135.31454,21.8237453 135.138236,22.6548916 135.03749,23.2593707 C134.634504,25.3750476 134.332269,27.3395752 134.130776,29.1530125 Z M130.3528,89.4495012 C130.3528,88.1397965 130.302428,87.3338365 130.201681,87.0315969 C130.100935,86.4271178 130.050562,85.3692952 130.050562,83.8580975 C129.949816,80.4327159 129.748326,77.9140908 129.446086,76.3021465 C129.446086,75.8991605 129.294969,75.2443179 128.992729,74.3375993 C128.791236,74.2368528 128.690491,74.0353627 128.690491,73.7331232 C128.690491,73.4308836 128.589746,73.2293936 128.388253,73.1286471 C128.18676,73.0279006 128.035642,72.8515968 127.934896,72.5997305 C127.834149,72.3478643 127.632659,72.221933 127.33042,72.221933 C127.229673,72.3226795 127.128928,72.574542 127.028182,72.9775281 C126.927435,73.3805142 126.82669,73.6827492 126.725944,73.8842422 C126.625197,74.1864818 126.574825,74.5390893 126.574825,74.9420754 C126.474078,75.5465545 126.398519,76.201397 126.348146,76.9066226 C126.297773,77.6118482 126.2474,78.3674358 126.197027,79.1734079 C126.146654,79.97938 126.121468,80.6342226 126.121468,81.1379551 C126.020721,83.1528855 125.919976,84.2610805 125.81923,84.4625736 L125.81923,85.9737638 C125.919976,86.1752568 125.970349,86.4019331 125.970349,86.6537994 C125.970349,86.9056656 125.995535,87.0819694 126.045908,87.1827159 C126.096281,87.2834624 126.071095,87.43458 125.970349,87.636073 C125.869602,87.9383125 125.81923,88.8953901 125.81923,90.5073344 C125.718483,91.5147995 125.617738,92.3207596 125.516992,92.9252387 C125.617738,93.4289712 125.592552,94.0838138 125.441432,94.8897859 C125.290312,95.6957581 125.214753,96.2498556 125.214753,96.5520951 C125.01326,96.9550812 124.912515,97.8617862 124.912515,99.2722375 C124.912515,100.178956 124.81177,100.934544 124.610277,101.539023 C124.408784,102.546488 124.459157,103.40282 124.761396,104.108046 C124.862143,104.410286 124.912515,104.813266 124.912515,105.316998 C124.811769,105.921477 124.862141,106.752624 125.063634,107.810462 C125.265128,108.868301 125.365873,109.699447 125.365873,110.303926 C125.365873,110.303926 125.416245,110.455043 125.516992,110.757283 C125.919978,112.268481 126.121468,113.024068 126.121468,113.024068 C126.222214,113.225561 126.297773,113.452238 126.348146,113.704104 C126.398519,113.95597 126.423706,114.132274 126.423706,114.23302 C126.423706,114.333767 126.499264,114.459698 126.650384,114.610818 C126.801504,114.761938 126.977808,114.887869 127.179301,114.988616 C127.380794,114.887869 127.431166,114.787124 127.33042,114.686377 L127.33042,114.384139 C127.431166,114.182646 127.531911,113.804853 127.632658,113.250747 C127.733404,112.696641 127.834149,112.268475 127.934896,111.966235 C128.438628,110.555784 128.690491,109.497961 128.690491,108.792736 C128.791237,107.886017 128.942355,106.878567 129.143848,105.770355 C129.647581,103.251692 129.899443,100.78344 129.899443,98.3655234 C129.899443,96.5520861 130.000188,95.343146 130.201681,94.7386669 L130.201681,93.8319528 C130.302428,91.4140364 130.3528,89.9532338 130.3528,89.4495012 Z M162.390032,37.9179156 C163.196004,36.8097039 163.649357,36.2052339 163.750103,36.1044874 C163.951596,35.6007548 164.203459,35.0970297 164.505699,34.5932972 C164.606445,34.2910576 164.656818,33.9384501 164.656818,33.535464 C164.757564,31.1175476 164.606447,29.052275 164.203461,27.3395842 C164.102714,26.7351051 163.800479,26.3321251 163.296746,26.1306321 C162.994507,26.0298856 162.541154,25.878768 161.936675,25.677275 C161.332196,25.475782 160.929216,25.375037 160.727723,25.375037 C159.921751,25.9795161 159.468398,26.2817511 159.367652,26.2817511 C159.468398,26.5839906 159.518771,27.1380882 159.518771,27.9440603 C159.518771,28.7500324 159.569143,29.3545025 159.66989,29.7574885 C159.770636,32.376898 160.677341,35.0970131 162.390032,37.9179156 Z M221.779807,35.5000113 C220.973835,35.6007578 220.318992,36.0541103 219.81526,36.8600825 C219.51302,37.363815 219.135226,38.1194026 218.681867,39.1268677 C218.228508,40.1343329 217.901086,40.7891754 217.699593,41.091415 C217.397354,41.5951476 216.893629,42.9048327 216.188403,45.0205095 C216.188403,45.121256 216.163217,45.322746 216.112844,45.6249856 C216.06247,45.9272251 215.986912,46.1287151 215.886165,46.2294617 C215.785419,46.3302082 215.634301,46.4561394 215.432808,46.6072592 C215.231315,46.758379 215.13057,46.8843102 215.13057,46.9850568 L215.13057,47.2872948 L215.281689,47.5895328 L215.432808,47.8917709 L215.432808,48.1940089 C215.130569,48.798488 214.929079,49.302213 214.828332,49.7051991 C214.727586,50.1081852 214.677213,50.6622827 214.677213,51.3675083 C214.677213,51.5690014 214.576468,51.9719814 214.374975,52.5764605 C214.173482,53.4831791 214.223854,54.1380217 214.526094,54.5410077 C215.130573,54.3395147 215.533553,54.1380247 215.735046,53.9365316 C217.749976,51.7201083 219.110034,49.9570707 219.81526,48.647366 L220.721974,46.8339377 C221.225706,46.1287121 221.679059,45.3479383 222.082045,44.4915929 C222.485031,43.6352475 222.888011,42.6277975 223.290997,41.4692125 C223.693983,40.3106276 224.046591,39.4291088 224.34883,38.8246297 C224.248084,38.7238832 223.971035,38.1949719 223.517676,37.23788 C223.064316,36.2807881 222.485033,35.7015043 221.779807,35.5000113 Z M261.675228,51.0652703 C262.581947,49.8563121 263.085672,49.151097 263.186418,48.949604 C264.29463,47.1361667 265.201335,45.2723841 265.906561,43.3582003 C266.2088,42.5522282 266.2088,41.7462681 265.906561,40.940296 C264.999842,38.8246191 264.496117,37.5149341 264.39537,37.0112015 C264.294624,36.6082154 263.992389,36.1044904 263.488656,35.5000113 C262.581938,34.4925461 261.775978,33.8377036 261.070752,33.535464 C260.667766,33.333971 260.315158,33.031736 260.012919,32.6287499 C259.811426,32.4272569 259.559563,32.1753944 259.257324,31.8731548 C258.854338,32.7798735 258.602475,34.039186 258.501729,35.6511303 L258.501729,37.3134395 C258.300236,38.1194116 258.350608,38.9757442 258.652848,39.8824628 C258.854341,40.4869419 258.955086,41.9477445 258.955086,44.2649144 L258.955086,45.096069 L258.955086,45.9272236 C259.055832,47.6399144 259.710675,49.1510895 260.919633,50.4607942 C260.919633,50.4607942 261.171495,50.6622842 261.675228,51.0652703 Z M267.115513,85.2181687 L267.115513,83.2536214 L267.115513,81.2890742 C267.115513,80.483102 267.014768,79.6267695 266.813275,78.7200508 C266.611782,78.3170648 266.007312,76.7555172 264.999846,74.0353612 C264.999846,74.0353612 264.798356,73.8842437 264.39537,73.5820042 C264.39537,73.5820042 264.269439,73.7079354 264.017573,73.9598017 C263.765707,74.211668 263.589403,74.4383443 263.488656,74.6398373 C261.473726,77.4607398 260.315158,79.2237774 260.012919,79.929003 C259.1062,81.3394542 258.803965,82.6491393 259.106205,83.8580975 C259.509191,86.1752674 259.962543,87.8879325 260.466276,88.9961442 C261.171502,90.910328 262.581932,91.8674055 264.697608,91.8674055 C264.798355,91.766659 264.8991,91.665914 264.999846,91.5651675 C265.100593,91.464421 265.150965,91.4140485 265.150965,91.4140485 C265.453205,90.9103159 265.730254,90.3310321 265.98212,89.6761797 C266.233986,89.0213274 266.435476,88.2657398 266.586596,87.4093945 C266.737716,86.5530491 266.91402,85.9233928 267.115513,85.5204067 L267.115513,85.2181687 Z"></path>
  </g>
</svg>
